PathFileType	4	(X/Y/Z)	E:\3-PhD\Data\MocapData\ElaboratedData\015\pre\dynamicElaborations\Run_baselineA1\Run_baselineA1.trc
DataRate	CameraRate	NumFrames	NumMarkers	Units	OrigDataRate	OrigDataStartFrame	OrigNumFrames
200	200	5	61	mm	200	8.550000e+02	99
Frame#	Time	FHD			LBHD			RBHD			C7			T10			CLAV			LSHO			LUUPA			LMUPA			LDUPA			LLEP			LMEP			LRAD			LUL			LRFIN			RSHO			RUPA1			RMUPA			RDUPA			RLEP			RMEP			RRAD			RUL			RUFIN			LASI			RASI			USACR			LSACR			RSACR			LTHI1			LTHI2			LTHI3			LTHI4			LLFC			LMFC			LTIB1			LTIB2			LTIB3			LTIB4			LLMAL			LMMAL			LHEE			LMT1			LMT5			LMT2			RTHI			RTHI2			RTHI3			RTHI4			RLFC			RMFC			RTIB1			RTIB2			RTIB3			RTIB4			RLMAL			RMMAL			RHEE			RMT1			RMT2			RMT5		
		X1	Y1	Z1	X2	Y2	Z2	X3	Y3	Z3	X4	Y4	Z4	X5	Y5	Z5	X6	Y6	Z6	X7	Y7	Z7	X8	Y8	Z8	X9	Y9	Z9	X10	Y10	Z10	X11	Y11	Z11	X12	Y12	Z12	X13	Y13	Z13	X14	Y14	Z14	X15	Y15	Z15	X16	Y16	Z16	X17	Y17	Z17	X18	Y18	Z18	X19	Y19	Z19	X20	Y20	Z20	X21	Y21	Z21	X22	Y22	Z22	X23	Y23	Z23	X24	Y24	Z24	X25	Y25	Z25	X26	Y26	Z26	X27	Y27	Z27	X28	Y28	Z28	X29	Y29	Z29	X30	Y30	Z30	X31	Y31	Z31	X32	Y32	Z32	X33	Y33	Z33	X34	Y34	Z34	X35	Y35	Z35	X36	Y36	Z36	X37	Y37	Z37	X38	Y38	Z38	X39	Y39	Z39	X40	Y40	Z40	X41	Y41	Z41	X42	Y42	Z42	X43	Y43	Z43	X44	Y44	Z44	X45	Y45	Z45	X46	Y46	Z46	X47	Y47	Z47	X48	Y48	Z48	X49	Y49	Z49	X50	Y50	Z50	X51	Y51	Z51	X52	Y52	Z52	X53	Y53	Z53	X54	Y54	Z54	X55	Y55	Z55	X56	Y56	Z56	X57	Y57	Z57	X58	Y58	Z58	X59	Y59	Z59	X60	Y60	Z60	X61	Y61	Z61	
855	4.270000	-3812.742359	1430.776126	235.177646	-3946.121443	1488.005759	222.824275	-3956.877734	1489.184768	350.082272	-4091.336586	1405.515226	306.838240	-4265.339980	1111.393660	311.048621	-3995.771945	1275.207615	266.756987	-4032.463384	1402.750181	116.261779	-4167.959120	1337.585236	-4.170088	-4185.836271	1297.843527	-8.290652	-4226.622136	1325.886744	-39.667623	-4307.574042	1319.310837	-63.886586	-4346.389571	1300.346791	25.688048	-4290.162516	1049.094909	-47.478312	-4241.825941	1072.177812	5.188616	-4202.073646	982.838181	-3.086749	-4003.737723	1352.470942	452.847854	-4001.157615	1177.624966	524.436185	-3976.328438	1147.090891	498.255923	-3999.261942	1107.729038	537.142757	-3996.549376	998.644881	523.152662	-4078.347672	987.165683	488.273195	-3904.171078	1113.606414	304.132464	-3860.224348	1051.398231	289.414688	-3840.861425	1155.283398	269.450947	-4184.475809	925.871748	175.928918	-4193.522394	889.659926	420.812030	-4325.685972	1028.155272	307.086446	-4344.917306	1003.198258	278.044506	-4341.324414	999.096730	333.957202	-4100.339205	728.594326	105.530609	-4016.445503	710.035487	115.282989	-3989.048179	747.729560	130.962230	-3993.295681	656.623518	140.399611	-3950.119135	603.347609	163.575370	-3974.756715	613.962616	280.617241	-3982.929878	454.293340	205.777497	-4041.673724	448.278134	139.119405	-4017.091167	425.666422	167.930462	-4076.594641	366.218308	190.553762	-4199.096134	301.675453	148.868684	-4197.720506	300.747540	237.394063	-4295.617959	272.240346	182.598397	-4097.990374	208.230002	229.991736	-4122.059338	205.215304	124.993394	-4088.182945	213.651239	181.702577	-4315.022401	713.428396	465.144247	-4310.238357	655.529546	451.180473	-4282.633296	642.565398	435.010336	-4379.647130	604.538849	442.398537	-4542.487234	479.590652	394.909461	-4527.213869	469.822039	269.084506	-4663.106971	292.424895	341.463573	-4765.986464	298.027617	375.192603	-4739.794228	259.568911	361.725596	-4768.966183	224.241011	327.610752	-4858.925616	210.427850	349.525994	-4843.903399	217.640790	267.414902	-4937.184093	258.609460	297.295991	-4848.476981	70.997869	269.312802	-4855.347302	72.140682	310.446140	-4902.811525	77.438277	358.907272	
856	4.275000	-3787.424860	1431.783451	233.139786	-3920.842078	1488.975640	220.815619	-3931.546850	1490.266464	348.019441	-4065.889620	1407.100268	305.828746	-4239.107432	1112.648535	313.057176	-3970.601128	1276.880830	264.947533	-4007.516970	1403.700725	114.513689	-4143.710444	1339.167996	-4.718216	-4161.909368	1299.679416	-8.931936	-4202.863193	1328.261625	-39.608990	-4283.812461	1322.218884	-62.920222	-4321.567991	1302.984757	26.770526	-4264.327468	1050.751687	-46.278182	-4215.674499	1074.565399	4.998379	-4175.213512	985.110889	-2.435294	-3977.701206	1354.061607	451.119550	-3975.119216	1179.969782	524.429476	-3950.548947	1148.993121	498.548932	-3973.421661	1110.247220	538.155997	-3971.548275	1001.080981	525.606445	-4053.779416	989.262333	491.317016	-3880.599490	1109.760120	302.868769	-3837.138767	1047.130929	289.194679	-3817.517455	1150.475375	266.439560	-4158.625741	928.071667	176.519152	-4164.740407	890.155679	420.103545	-4298.943427	1029.476198	309.905231	-4318.320681	1004.383467	281.203260	-4314.000177	1000.094062	336.976972	-4075.271366	729.736443	105.497139	-3991.453563	710.674978	114.599580	-3963.916975	748.772938	129.060989	-3968.328782	657.803485	140.166916	-3923.557056	604.684624	162.579729	-3946.921635	614.884567	278.477220	-3947.817191	453.201334	205.671482	-4006.329709	442.790649	139.315700	-3980.253971	422.411734	168.257701	-4036.280054	359.734312	191.867083	-4155.163017	287.326055	151.850345	-4153.447844	287.613626	240.202965	-4249.726811	252.585582	186.515463	-4048.096082	201.490800	233.366282	-4072.504687	195.319579	128.808656	-4038.920704	206.774835	184.903993	-4284.845167	713.511832	463.351543	-4281.450132	655.634280	447.240548	-4254.384768	642.955472	430.120441	-4351.415122	605.534944	439.006033	-4517.626574	484.249557	393.026935	-4506.214575	477.808541	266.977275	-4642.592172	299.295791	339.961472	-4744.519521	305.532632	376.756752	-4718.656956	267.337260	361.859046	-4749.644632	232.455793	328.121331	-4839.377835	219.295566	352.200715	-4826.172992	227.406664	269.871920	-4915.878727	273.128127	302.868487	-4839.122690	78.338452	268.064901	-4844.838672	79.204518	309.475750	-4890.810610	88.154620	359.034675	
857	4.280000	-3761.833162	1432.722371	231.220043	-3895.331647	1489.817081	218.942329	-3905.953115	1491.194100	346.108070	-4040.132370	1408.606843	304.823189	-4213.055032	1114.210912	314.920902	-3945.245083	1278.333805	263.291768	-3982.422506	1404.240280	112.642130	-4119.374708	1339.937228	-5.303664	-4137.734990	1300.576463	-9.539247	-4178.926756	1329.518364	-39.584168	-4259.812697	1323.564937	-62.032374	-4296.650022	1304.046465	27.787515	-4237.629404	1051.060505	-44.632199	-4188.728847	1075.708774	5.175127	-4147.344474	986.351652	-1.247710	-3951.555900	1355.328151	449.720478	-3949.860530	1181.863452	524.791739	-3925.516572	1150.416520	499.287872	-3948.605308	1112.304565	539.418838	-3947.741974	1003.065049	528.175091	-4030.272568	991.385344	494.234260	-3856.871371	1104.254507	301.987331	-3814.266215	1040.959713	289.726072	-3793.576205	1143.391900	264.141482	-4132.974904	930.332571	176.964339	-4136.355900	890.867427	419.309207	-4272.428122	1031.046428	312.477067	-4291.900602	1005.796975	284.086241	-4286.895741	1001.328258	339.734958	-4050.982898	729.849099	105.389775	-3967.321065	710.010852	113.706120	-3939.437751	748.390299	126.815052	-3944.239733	657.673487	139.775981	-3898.180596	604.782752	161.313461	-3920.047585	614.577868	276.215973	-3914.031556	451.312146	205.206347	-3972.176153	436.693668	139.335598	-3944.802165	418.540223	168.396788	-3997.199877	352.949940	193.037331	-4112.126255	273.037861	154.806418	-4110.181791	274.757216	243.000853	-4204.581035	233.513498	190.444331	-3999.874333	195.043537	236.901760	-4024.370157	185.392656	132.869927	-3991.252981	199.950708	188.256207	-4254.340634	713.571117	461.510390	-4251.971656	655.607641	443.319906	-4225.386953	643.415966	425.208051	-4322.146775	605.923033	435.722656	-4490.630138	487.142678	391.366615	-4483.028512	484.308348	265.365342	-4620.839081	305.840043	338.235945	-4721.689310	313.168193	377.973916	-4696.575465	275.060658	361.663389	-4729.433834	241.137692	328.226131	-4818.809558	229.235211	354.452953	-4807.414123	238.553573	272.007374	-4893.576720	288.355933	308.260450	-4828.075548	87.853452	266.319915	-4832.498305	88.075134	307.945644	-4876.776823	100.337976	358.900279	
858	4.285000	-3735.958774	1433.568482	229.428775	-3869.553062	1490.539962	217.208719	-3880.073664	1491.989098	344.350150	-4014.070840	1410.023745	303.825293	-4187.183229	1116.068034	316.627728	-3919.700686	1279.579788	261.779746	-3957.209007	1404.413179	110.675529	-4094.963018	1339.886170	-5.933366	-4113.292407	1300.498385	-10.108754	-4154.798537	1329.572342	-39.612481	-4235.580370	1323.259142	-61.255964	-4271.598556	1303.455288	28.731845	-4210.035269	1050.037668	-42.545159	-4160.974307	1075.614920	5.792645	-4118.457671	986.596370	0.498498	-3925.282536	1356.251257	448.638361	-3925.321837	1183.312097	525.479532	-3901.193669	1151.371651	500.415393	-3924.752662	1113.905721	540.880542	-3925.092244	1004.614608	530.822335	-4007.805260	993.557434	496.999525	-3833.026358	1097.151339	301.559785	-3791.655773	1032.971036	291.070733	-3769.094439	1134.107154	262.680053	-4107.491522	932.630022	177.202272	-4108.348785	891.812443	418.407058	-4246.162156	1032.842027	314.768400	-4265.683111	1007.416027	286.662026	-4260.039382	1002.787958	342.199553	-4027.367984	729.040358	105.182361	-3943.933164	708.208152	112.614353	-3915.532461	746.733046	124.311460	-3920.911046	656.367148	139.168489	-3873.914931	603.670943	159.777473	-3894.143432	613.092254	273.885958	-3881.647223	448.614158	204.388492	-3939.306507	429.984992	139.154863	-3910.843823	413.994948	168.349675	-3959.511913	345.864857	194.036109	-4070.237595	258.889797	157.682717	-4068.152924	262.231707	245.709538	-4160.502547	215.143358	194.337269	-3953.558361	188.808537	240.498341	-3977.925124	175.401171	137.080059	-3945.406434	193.107199	191.658041	-4223.602398	713.641598	459.672681	-4221.865557	655.458157	439.550264	-4195.680133	643.938470	420.445435	-4291.917878	605.690956	432.617968	-4461.597395	488.223064	389.956375	-4457.594988	489.016740	264.217186	-4597.874037	312.010337	336.403924	-4697.539018	320.936132	378.839672	-4673.544589	282.785858	361.201103	-4708.322024	250.261923	328.001662	-4797.225369	240.217780	356.268804	-4787.524259	251.021281	273.820500	-4870.231597	304.241617	313.395537	-4815.277258	99.572838	264.105718	-4818.341581	98.779794	305.871126	-4860.785588	113.863189	358.474104	
859	4.290000	-3709.808363	1434.293261	227.768929	-3843.484042	1491.149767	215.617539	-3853.896327	1492.671628	342.745366	-3987.715624	1411.337078	302.842901	-4161.486041	1118.197361	318.157054	-3893.973475	1280.630412	260.401327	-3931.902170	1404.260498	108.648429	-4070.483448	1339.015964	-6.608874	-4088.561032	1299.419708	-10.630138	-4130.459061	1328.356116	-39.705721	-4211.109556	1321.252288	-60.610266	-4246.369601	1301.196132	29.604767	-4181.517126	1047.727093	-40.025818	-4132.400989	1074.354634	6.914722	-4088.582724	985.948088	2.812465	-3898.875716	1356.810214	447.849691	-3901.443944	1184.338226	526.441455	-3877.546469	1151.880065	501.864494	-3901.799437	1115.077593	542.493692	-3903.543166	1005.766111	533.522618	-3986.325637	995.794797	499.594039	-3809.131058	1088.533018	301.668583	-3769.376756	1023.284325	293.292862	-3744.180518	1122.729566	262.177271	-4082.122157	934.936909	177.191332	-4080.680774	892.999774	417.384144	-4220.153044	1034.821754	316.755313	-4239.686365	1009.198872	288.913401	-4233.444087	1004.448473	344.350893	-4004.320751	727.449800	104.839140	-3921.172620	705.458926	111.318630	-3892.119824	743.979498	121.630428	-3898.237991	654.035829	138.282615	-3850.668917	601.390181	157.978900	-3869.209463	610.482940	271.516438	-3850.719303	445.111549	203.239774	-3907.801690	422.680380	138.761518	-3878.450889	408.754773	168.111367	-3923.355850	338.481146	194.841375	-4029.751007	244.961634	160.427962	-4027.579167	250.077405	248.260100	-4117.813314	197.584391	198.152592	-3909.356448	182.674112	244.034060	-3933.433740	165.319898	141.319393	-3901.593364	186.162555	194.993452	-4192.702741	713.775896	457.899849	-4191.207593	655.213712	436.081737	-4165.322707	644.518187	416.015766	-4260.833616	604.870879	429.760710	-4430.683493	487.587609	388.798121	-4429.922459	491.766890	263.450476	-4573.664008	317.790069	334.610040	-4672.064911	328.841399	379.396559	-4649.482427	290.574038	360.566927	-4686.204807	259.789071	327.551015	-4774.549828	252.154752	357.681513	-4766.318339	264.651530	275.340058	-4845.681223	320.711716	318.203234	-4800.669682	113.363533	261.514476	-4802.410266	111.262574	303.348083	-4842.963559	128.601620	357.734166	
